<svg width="617" height="128" viewBox="0 0 617 128" fill="none" xmlns="http://www.w3.org/2000/svg">
<path d="M0 54L53.5287 0.471313V27.2357H107.057L53.5287 67.3822V107.529L0 54Z" fill="white"/>
<path d="M187.35 54L133.822 107.529V80.7644H80.293L133.822 40.6178V0.471313L187.35 54Z" fill="white"/>
<path d="M291.388 101V7.32043H314.03V46.933H315.265L346.232 7.32043H372.9L339.691 49.1286L373.495 101H346.415L323.087 64.1777L314.03 75.6132V101H291.388Z" fill="white"/>
<path d="M211.12 101V88.1008L256.633 25.7087H211.166V7.32043H285.268V20.2197L239.755 82.6117H285.222V101H211.12Z" fill="white"/>
<path d="M589.446 102.464C583.164 102.464 577.69 100.893 573.024 97.7523C568.389 94.6114 564.791 90.3116 562.229 84.8531C559.667 79.3945 558.387 73.1736 558.387 66.1904C558.387 59.1461 559.683 52.8795 562.275 47.3904C564.897 41.9014 568.526 37.6016 573.161 34.4912C577.797 31.3502 583.179 29.7798 589.308 29.7798C594.004 29.7798 598.258 30.6946 602.07 32.5243C605.882 34.3235 609.023 36.8698 611.493 40.1632C613.994 43.4261 615.564 47.2379 616.205 51.5987H607.971C607.117 47.6344 605.059 44.2495 601.796 41.444C598.563 38.608 594.447 37.19 589.446 37.19C584.963 37.19 580.999 38.4097 577.553 40.8493C574.107 43.2584 571.408 46.628 569.456 50.9583C567.535 55.258 566.575 60.2439 566.575 65.9159C566.575 71.6184 567.52 76.6653 569.411 81.0565C571.301 85.4172 573.954 88.8326 577.37 91.3027C580.816 93.7728 584.841 95.0078 589.446 95.0078C592.556 95.0078 595.392 94.4284 597.954 93.2696C600.546 92.0803 602.711 90.4031 604.449 88.238C606.218 86.0729 607.407 83.4961 608.017 80.5076H616.25C615.64 84.7464 614.131 88.5277 611.722 91.8516C609.343 95.145 606.248 97.7371 602.436 99.6277C598.655 101.518 594.325 102.464 589.446 102.464Z" fill="white"/>
<path d="M504.565 57.0877V101H496.423V30.7403H504.336V41.7641H505.068C506.715 38.1658 509.277 35.284 512.753 33.1189C516.26 30.9233 520.59 29.8255 525.744 29.8255C530.47 29.8255 534.618 30.8166 538.186 32.7987C541.784 34.7504 544.574 37.6321 546.556 41.444C548.569 45.2558 549.575 49.9367 549.575 55.4867V101H541.433V55.9899C541.433 50.2264 539.817 45.6675 536.585 42.3131C533.383 38.9586 529.083 37.2814 523.685 37.2814C519.995 37.2814 516.717 38.0743 513.851 39.66C510.984 41.2457 508.712 43.5328 507.035 46.5213C505.389 49.4793 504.565 53.0014 504.565 57.0877Z" fill="white"/>
<path d="M440.795 127.347C439.179 127.347 437.669 127.195 436.267 126.89C434.864 126.585 433.751 126.25 432.927 125.884L435.123 118.702C437.898 119.556 440.368 119.861 442.533 119.617C444.698 119.404 446.62 118.428 448.297 116.689C449.974 114.982 451.468 112.359 452.779 108.822L455.341 101.686L429.497 30.7403H438.325L459.183 90.2506H459.824L480.682 30.7403H489.51L459.778 112.115C458.528 115.5 456.988 118.321 455.158 120.578C453.328 122.865 451.209 124.557 448.8 125.655C446.421 126.783 443.753 127.347 440.795 127.347Z" fill="white"/>
<path d="M425.305 46.1554L417.85 48.2595C417.118 46.1554 416.081 44.2495 414.739 42.5418C413.397 40.8341 411.644 39.4771 409.479 38.4707C407.344 37.4644 404.691 36.9612 401.52 36.9612C396.762 36.9612 392.859 38.0895 389.81 40.3461C386.76 42.6028 385.235 45.515 385.235 49.0829C385.235 52.1018 386.272 54.5567 388.346 56.4473C390.45 58.3075 393.683 59.7865 398.043 60.8843L408.655 63.4916C414.541 64.9248 418.947 67.1967 421.875 70.3071C424.833 73.4176 426.312 77.3209 426.312 82.0171C426.312 85.9814 425.214 89.5035 423.018 92.5835C420.823 95.6634 417.758 98.0878 413.824 99.8565C409.921 101.595 405.392 102.464 400.239 102.464C393.378 102.464 387.721 100.924 383.269 97.8438C378.816 94.7334 375.965 90.2506 374.715 84.3957L382.537 82.4745C383.543 86.6523 385.51 89.8085 388.437 91.9431C391.395 94.0777 395.283 95.145 400.102 95.145C405.499 95.145 409.814 93.9405 413.047 91.5314C416.279 89.0918 417.895 86.0424 417.895 82.383C417.895 79.547 416.95 77.1684 415.059 75.2473C413.169 73.2956 410.302 71.8624 406.46 70.9475L394.979 68.203C388.88 66.7393 384.366 64.4217 381.439 61.2502C378.511 58.0788 377.048 54.145 377.048 49.4488C377.048 45.576 378.1 42.1758 380.204 39.2483C382.308 36.2904 385.205 33.9728 388.895 32.2956C392.585 30.6184 396.793 29.7798 401.52 29.7798C407.954 29.7798 413.092 31.2435 416.935 34.171C420.808 37.068 423.598 41.0628 425.305 46.1554Z" fill="white"/>
</svg>
